PathFileType	4	(X/Y/Z)	/Users/itak/Documents/Research/Walk-IL/dataset/trc/00080_00006.trc
DataRate	CameraRate	NumFrames	NumMarkers	Units	OrigDataRate	OrigDataStartFrame	OrigNumFrames
100.000000	100.000000	4	53	mm	100.000000	204	546
Frame#	Time	RPSI			LPSI			L3			STRN			T10			C7			CLAV			RBAK			LBAK			LSHO			LUPA			LAEL			LAOL			LWTS			LWPS			LFRA			LIFD			LHPS			LHTS			RSHO			RUPA			RAEL			RAOL			RWTS			RWPS			RFRA			RIFD			RHTS			RHPS			RBHD			LFHD			RFHD			LBHD			LHIP			RHIP			RASI			LASI			LKNE			LTHI			LANK			LTIP			LTOE			LMT1			LMT5			LHEE			RKNE			RTHI			RANK			RTIP			RTOE			RMT1			RMT5			RHEE			
		X1	Y1	Z1	X2	Y2	Z2	X3	Y3	Z3	X4	Y4	Z4	X5	Y5	Z5	X6	Y6	Z6	X7	Y7	Z7	X8	Y8	Z8	X9	Y9	Z9	X10	Y10	Z10	X11	Y11	Z11	X12	Y12	Z12	X13	Y13	Z13	X14	Y14	Z14	X15	Y15	Z15	X16	Y16	Z16	X17	Y17	Z17	X18	Y18	Z18	X19	Y19	Z19	X20	Y20	Z20	X21	Y21	Z21	X22	Y22	Z22	X23	Y23	Z23	X24	Y24	Z24	X25	Y25	Z25	X26	Y26	Z26	X27	Y27	Z27	X28	Y28	Z28	X29	Y29	Z29	X30	Y30	Z30	X31	Y31	Z31	X32	Y32	Z32	X33	Y33	Z33	X34	Y34	Z34	X35	Y35	Z35	X36	Y36	Z36	X37	Y37	Z37	X38	Y38	Z38	X39	Y39	Z39	X40	Y40	Z40	X41	Y41	Z41	X42	Y42	Z42	X43	Y43	Z43	X44	Y44	Z44	X45	Y45	Z45	X46	Y46	Z46	X47	Y47	Z47	X48	Y48	Z48	X49	Y49	Z49	X50	Y50	Z50	X51	Y51	Z51	X52	Y52	Z52	X53	Y53	Z53	

205	2.04	-990.3695678710938	1010.751647949219	458.5797729492188	-1016.284057617188	1001.580871582031	284.4626159667969	-1000.0244140625	1059.076904296875	371.1753845214844	-748.2893676757812	1252.920532226562	341.23291015625	-1014.826354980469	1193.896606445312	373.4521179199219	-949.5245361328125	1459.571411132812	366.3273620605469	-775.7245483398438	1368.153686523438	343.2074890136719	-1005.56201171875	1321.373168945312	446.9862976074219	-987.836181640625	1424.922973632812	270.7122802734375	-897.477783203125	1428.516479492188	183.9351959228516	-937.80615234375	1307.614990234375	108.5902557373047	-945.3069458007812	1096.724609375	71.79261016845703	-984.0996704101562	1079.093139648438	170.5281066894531	-860.8113403320312	848.2662963867188	89.61317443847656	-935.6141357421875	845.421875	50.45366287231445	-937.8409423828125	987.7767944335938	51.97259521484375	-861.6166381835938	660.5255737304688	92.26116943359375	-911.1199951171875	763.453125	39.88584899902344	-848.355712890625	764.667236328125	73.66040802001953	-866.4721069335938	1419.304077148438	531.2001953125	-874.1388549804688	1350.744750976562	594.9996337890625	-914.5060424804688	1088.753784179688	632.4415893554688	-907.939453125	1066.215576171875	535.1944580078125	-767.4468383789062	844.4981689453125	567.4619140625	-830.136474609375	822.510498046875	624.9910888671875	-900.1027221679688	1005.802307128906	637.499267578125	-755.792236328125	658.6299438476562	539.81298828125	-738.6653442382812	746.5751953125	558.5023803710938	-786.5325317382812	737.4569091796875	618.0905151367188	-919.6041259765625	1645.281127929688	335.5817260742188	-706.0939331054688	1658.130981445312	366.7434387207031	-761.7871704101562	1663.251098632812	253.4560241699219	-851.556884765625	1631.619750976562	454.6845703125	-918.1010131835938	942.3980102539062	184.6094207763672	-927.4193725585938	934.3826904296875	531.1011962890625	-803.0137329101562	941.9268188476562	503.3567810058594	-802.8175659179688	949.2828369140625	234.3059387207031	-697.2667236328125	518.8042602539062	234.5041046142578	-777.39794921875	638.4560546875	193.2324981689453	-717.2156372070312	45.58926391601562	247.2624206542969	-712.1837158203125	265.9569396972656	226.3000183105469	-515.7833862304688	67.44039154052734	228.91748046875	-555.6043701171875	58.7625617980957	286.3013305664062	-621.421875	45.99594497680664	197.0575408935547	-755.2387084960938	43.8740119934082	330.7498779296875	-968.9973754882812	498.703125	505.1690063476562	-886.0516967773438	756.18115234375	529.8443603515625	-1275.896850585938	106.2652130126953	509.5671081542969	-1043.5947265625	393.8566589355469	514.1897583007812	-1082.007568359375	42.08218383789062	480.394775390625	-1130.787963867188	54.88919448852539	437.3095092773438	-1163.98193359375	57.55013275146484	530.554931640625	-1314.639770507812	130.5366973876953	451.9615783691406	
206	2.05	-979.5904541015625	1012.205444335938	456.525146484375	-1006.855712890625	1002.938293457031	282.666015625	-989.7874145507812	1059.913818359375	369.1517028808594	-739.3591918945312	1254.715087890625	337.0295104980469	-1005.837097167969	1194.5302734375	371.2534484863281	-941.3466186523438	1460.469482421875	362.949951171875	-767.3132934570312	1369.801879882812	339.0593566894531	-996.4368286132812	1322.185668945312	444.1316223144531	-980.0457763671875	1425.644409179688	267.595947265625	-890.1251220703125	1429.582397460938	180.3657684326172	-930.3984985351562	1308.48583984375	105.3272476196289	-937.3661499023438	1097.491333007812	68.90435791015625	-975.6368408203125	1079.901123046875	167.8466186523438	-851.9857788085938	849.3212890625	86.76775360107422	-926.9739990234375	846.2258911132812	47.86877059936523	-929.6627807617188	988.5643310546875	49.1976318359375	-852.491943359375	661.5498657226562	89.82817077636719	-902.2933959960938	764.2750854492188	37.39890289306641	-839.4744873046875	765.6756591796875	70.97933959960938	-857.4917602539062	1420.998291015625	527.4218139648438	-864.7916259765625	1352.578491210938	591.2875366210938	-905.04736328125	1090.901489257812	629.1287231445312	-898.223876953125	1068.1171875	531.949462890625	-758.384033203125	846.2213745117188	564.7863159179688	-820.9950561523438	824.4901123046875	622.384521484375	-890.7491455078125	1007.888000488281	634.4627075195312	-747.01171875	660.2852783203125	537.5064086914062	-729.7533569335938	748.208251953125	556.0034790039062	-777.5655517578125	739.3108520507812	615.6725463867188	-911.7998657226562	1646.869873046875	332.18310546875	-698.1951293945312	1659.50439453125	362.2647094726562	-754.3975219726562	1664.671508789062	249.2429046630859	-843.2374877929688	1633.151611328125	450.9078063964844	-909.4490966796875	943.47119140625	182.2577056884766	-916.464599609375	935.773681640625	528.8914794921875	-792.3543090820312	943.1279296875	499.8799438476562	-793.6836547851562	950.4942626953125	230.9691162109375	-690.3545532226562	518.5717163085938	232.1290588378906	-769.7666015625	638.9356079101562	190.8478698730469	-716.4470825195312	45.43289566040039	246.8842926025391	-708.4105834960938	265.6670532226562	224.9831848144531	-514.2627563476562	63.81766128540039	228.9995727539062	-554.4371948242188	56.76338195800781	286.3295593261719	-620.4408569335938	44.65592193603516	196.8687591552734	-754.6415405273438	44.55247116088867	330.3031005859375	-957.3400268554688	499.2291259765625	503.284423828125	-875.16845703125	756.997802734375	526.9692993164062	-1271.699340820312	112.2372436523438	509.9456787109375	-1033.434936523438	395.3038024902344	513.4050903320312	-1082.361328125	42.18709182739258	480.3624877929688	-1129.45068359375	55.39334487915039	437.4124145507812	-1161.97412109375	58.72302627563477	530.8946533203125	-1308.9296875	137.9488677978516	452.2244873046875	
207	2.06	-968.9146118164062	1013.667236328125	454.3186950683594	-997.418212890625	1004.244262695312	280.69873046875	-979.57470703125	1060.81982421875	366.9519348144531	-730.3984375	1256.539306640625	332.8370971679688	-996.7876586914062	1195.1953125	368.9559020996094	-933.1273803710938	1461.396850585938	359.5245361328125	-758.8670043945312	1371.484130859375	334.9084167480469	-987.3016967773438	1323.038696289062	441.1813659667969	-972.1791381835938	1426.373657226562	264.4232177734375	-882.6951293945312	1430.671997070312	176.7664184570312	-922.9270629882812	1309.401489257812	101.9980087280273	-929.3582153320312	1098.303466796875	65.94080352783203	-967.1220703125	1080.751220703125	165.0789031982422	-843.056884765625	850.4338989257812	83.89604187011719	-918.2227172851562	847.0648803710938	45.24166107177734	-921.3956909179688	989.3869018554688	46.36083221435547	-843.2144775390625	662.6449584960938	87.38488006591797	-893.328125	765.1337890625	34.88700103759766	-830.4490966796875	766.7500610351562	68.27549743652344	-848.529296875	1422.75634765625	523.6043090820312	-855.5218505859375	1354.513671875	587.592529296875	-895.615478515625	1093.126586914062	625.8619995117188	-888.5128173828125	1070.086303710938	528.7450561523438	-749.2864379882812	848.0401611328125	562.2316284179688	-811.8727416992188	826.5481567382812	619.8140869140625	-881.4480590820312	1010.051818847656	631.4480590820312	-738.1013793945312	662.0662841796875	535.2495727539062	-720.8006591796875	749.9432373046875	553.6234741210938	-768.601806640625	741.2420043945312	613.2907104492188	-903.9882202148438	1648.472045898438	328.7514953613281	-690.3184204101562	1660.9365234375	357.7632141113281	-747.0226440429688	1666.141235351562	245.0064239501953	-834.9390258789062	1634.720825195312	447.0897216796875	-900.6863403320312	944.4879760742188	179.8271331787109	-905.6152954101562	937.23046875	526.5858764648438	-781.7925415039062	944.4307861328125	496.3760070800781	-784.5039672851562	951.66455078125	227.6119689941406	-683.715087890625	518.1763916015625	230.0177764892578	-762.3168334960938	639.2258911132812	188.5122833251953	-715.7197265625	45.35349273681641	246.5694122314453	-704.6436157226562	265.3222351074219	223.8258819580078	-512.8402099609375	60.41242599487305	229.0897064208984	-553.3334350585938	54.992431640625	286.3992614746094	-619.5079956054688	43.57974243164062	196.7162322998047	-754.1057739257812	45.14049911499023	329.8912353515625	-944.6240844726562	499.4916687011719	501.4950561523438	-863.9840698242188	757.8148803710938	524.0794677734375	-1266.82177734375	118.5677947998047	510.3026123046875	-1022.258239746094	396.5565490722656	512.6823120117188	-1082.7666015625	42.23216247558594	480.381591796875	-1127.957885742188	55.87907028198242	437.5792236328125	-1159.740600585938	59.98806381225586	531.2864379882812	-1302.275268554688	145.7504425048828	452.4284362792969	
208	2.07	-958.4259033203125	1015.057556152344	451.9466247558594	-988.028076171875	1005.476379394531	278.54833984375	-969.4719848632812	1061.763549804688	364.5578308105469	-721.433837890625	1258.337524414062	328.6888427734375	-987.697998046875	1195.877685546875	366.5152893066406	-924.8800048828125	1462.328369140625	356.0587463378906	-750.3974609375	1373.152099609375	330.7830200195312	-978.1934814453125	1323.909301757812	438.1337585449219	-964.2324829101562	1427.090454101562	261.1953735351562	-875.1713256835938	1431.749755859375	173.1501159667969	-915.3790893554688	1310.326538085938	98.60891723632812	-921.2838745117188	1099.12744140625	62.90045928955078	-958.5640258789062	1081.611328125	162.2199096679688	-834.0308227539062	851.571044921875	80.99317932128906	-909.3604736328125	847.9012451171875	42.57873916625977	-913.0399169921875	990.2094116210938	43.46244430541992	-833.75	663.7825927734375	84.91500091552734	-884.2274780273438	765.998291015625	32.34663009643555	-821.2725219726562	767.8640747070312	65.53734588623047	-839.6102905273438	1424.53076171875	519.7675170898438	-846.346923828125	1356.48681640625	583.923583984375	-886.209716796875	1095.369873046875	622.6673583984375	-878.8475952148438	1072.0625	525.6133422851562	-740.1488647460938	849.9049682617188	559.8018188476562	-802.7657470703125	828.6322021484375	617.2950439453125	-872.185791015625	1012.240234375	628.4839477539062	-729.06982421875	663.916748046875	533.0518188476562	-711.8076171875	751.729736328125	551.3720703125	-759.6432495117188	743.2020874023438	610.9564208984375	-896.1834716796875	1650.044799804688	325.2960510253906	-682.4712524414062	1662.389526367188	353.2556762695312	-739.6686401367188	1667.617309570312	240.764404296875	-826.6695556640625	1636.285278320312	443.2459106445312	-891.8488159179688	945.4396362304688	177.310302734375	-894.9252319335938	938.6744384765625	524.1587524414062	-771.375244140625	945.7977294921875	492.8554077148438	-775.3338623046875	952.7725219726562	224.2362976074219	-677.3458862304688	517.6468505859375	228.2287902832031	-755.0909423828125	639.3201904296875	186.3126220703125	-715.039306640625	45.36137008666992	246.3417205810547	-700.8825073242188	264.925048828125	222.8708038330078	-511.5165405273438	57.24264526367188	229.2082824707031	-552.2929077148438	53.42499923706055	286.5337829589844	-618.6195068359375	42.75478744506836	196.6295166015625	-753.6298217773438	45.63420486450195	329.55126953125	-930.8150024414062	499.4568786621094	499.8255004882812	-852.518798828125	758.6085815429688	521.1895141601562	-1261.173583984375	125.2864151000977	510.6401977539062	-1010.017272949219	397.5816650390625	512.0157470703125	-1083.115478515625	42.16789627075195	480.4567260742188	-1126.240844726562	56.38811111450195	437.8276977539062	-1157.239501953125	61.41884231567383	531.7369995117188	-1294.6005859375	153.9359283447266	452.5925903320312	
